<svg xmlns="http://www.w3.org/2000/svg" viewBox="0 0 480 160" width="480" height="160" shape-rendering="crispEdges"><rect x="0" y="0" width="10" height="10" fill="rgb(4,5,22)"/><rect x="10" y="0" width="10" height="10" fill="rgb(4,5,22)"/><rect x="20" y="0" width="10" height="10" fill="rgb(4,5,22)"/><rect x="30" y="0" width="10" height="10" fill="rgb(4,5,22)"/><rect x="40" y="0" width="10" height="10" fill="rgb(4,5,22)"/><rect x="50" y="0" width="10" height="10" fill="rgb(4,5,22)"/><rect x="60" y="0" width="10" height="10" fill="rgb(4,5,22)"/><rect x="70" y="0" width="10" height="10" fill="rgb(4,5,22)"/><rect x="80" y="0" width="10" height="10" fill="rgb(4,5,22)"/><rect x="90" y="0" width="10" height="10" fill="rgb(4,5,22)"/><rect x="100" y="0" width="10" height="10" fill="rgb(4,5,22)"/><rect x="110" y="0" width="10" height="10" fill="rgb(4,5,22)"/><rect x="120" y="0" width="10" height="10" fill="#404060"/><rect x="130" y="0" width="10" height="10" fill="rgb(4,5,22)"/><rect x="140" y="0" width="10" height="10" fill="rgb(4,5,22)"/><rect x="150" y="0" width="10" height="10" fill="rgb(4,5,22)"/><rect x="160" y="0" width="10" height="10" fill="rgb(4,5,22)"/><rect x="170" y="0" width="10" height="10" fill="rgb(4,5,22)"/><rect x="180" y="0" width="10" height="10" fill="rgb(4,5,22)"/><rect x="190" y="0" width="10" height="10" fill="rgb(4,5,22)"/><rect x="200" y="0" width="10" height="10" fill="rgb(4,5,22)"/><rect x="210" y="0" width="10" height="10" fill="rgb(4,5,22)"/><rect x="220" y="0" width="10" height="10" fill="#f0d060"/><rect x="230" y="0" width="10" height="10" fill="rgb(4,5,22)"/><rect x="240" y="0" width="10" height="10" fill="rgb(4,5,22)"/><rect x="250" y="0" width="10" height="10" fill="rgb(4,5,22)"/><rect x="260" y="0" width="10" height="10" fill="rgb(4,5,22)"/><rect x="270" y="0" width="10" height="10" fill="rgb(4,5,22)"/><rect x="280" y="0" width="10" height="10" fill="rgb(4,5,22)"/><rect x="290" y="0" width="10" height="10" fill="rgb(4,5,22)"/><rect x="300" y="0" width="10" height="10" fill="rgb(4,5,22)"/><rect x="310" y="0" width="10" height="10" fill="rgb(4,5,22)"/><rect x="320" y="0" width="10" height="10" fill="rgb(4,5,22)"/><rect x="330" y="0" width="10" height="10" fill="rgb(4,5,22)"/><rect x="340" y="0" width="10" height="10" fill="rgb(4,5,22)"/><rect x="350" y="0" width="10" height="10" fill="rgb(4,5,22)"/><rect x="360" y="0" width="10" height="10" fill="rgb(4,5,22)"/><rect x="370" y="0" width="10" height="10" fill="rgb(4,5,22)"/><rect x="380" y="0" width="10" height="10" fill="rgb(4,5,22)"/><rect x="390" y="0" width="10" height="10" fill="rgb(4,5,22)"/><rect x="400" y="0" width="10" height="10" fill="rgb(4,5,22)"/><rect x="410" y="0" width="10" height="10" fill="rgb(4,5,22)"/><rect x="420" y="0" width="10" height="10" fill="rgb(4,5,22)"/><rect x="430" y="0" width="10" height="10" fill="rgb(4,5,22)"/><rect x="440" y="0" width="10" height="10" fill="rgb(4,5,22)"/><rect x="450" y="0" width="10" height="10" fill="rgb(4,5,22)"/><rect x="460" y="0" width="10" height="10" fill="rgb(4,5,22)"/><rect x="470" y="0" width="10" height="10" fill="rgb(4,5,22)"/><rect x="0" y="10" width="10" height="10" fill="rgb(5,6,27)"/><rect x="10" y="10" width="10" height="10" fill="rgb(5,6,27)"/><rect x="20" y="10" width="10" height="10" fill="rgb(5,6,27)"/><rect x="30" y="10" width="10" height="10" fill="#f0d060"/><rect x="40" y="10" width="10" height="10" fill="rgb(5,6,27)"/><rect x="50" y="10" width="10" height="10" fill="rgb(5,6,27)"/><rect x="60" y="10" width="10" height="10" fill="rgb(5,6,27)"/><rect x="70" y="10" width="10" height="10" fill="rgb(5,6,27)"/><rect x="80" y="10" width="10" height="10" fill="rgb(5,6,27)"/><rect x="90" y="10" width="10" height="10" fill="rgb(5,6,27)"/><rect x="100" y="10" width="10" height="10" fill="rgb(5,6,27)"/><rect x="110" y="10" width="10" height="10" fill="rgb(5,6,27)"/><rect x="120" y="10" width="10" height="10" fill="rgb(5,6,27)"/><rect x="130" y="10" width="10" height="10" fill="rgb(5,6,27)"/><rect x="140" y="10" width="10" height="10" fill="rgb(5,6,27)"/><rect x="150" y="10" width="10" height="10" fill="#f0d060"/><rect x="160" y="10" width="10" height="10" fill="rgb(5,6,27)"/><rect x="170" y="10" width="10" height="10" fill="rgb(5,6,27)"/><rect x="180" y="10" width="10" height="10" fill="rgb(5,6,27)"/><rect x="190" y="10" width="10" height="10" fill="rgb(5,6,27)"/><rect x="200" y="10" width="10" height="10" fill="rgb(5,6,27)"/><rect x="210" y="10" width="10" height="10" fill="rgb(5,6,27)"/><rect x="220" y="10" width="10" height="10" fill="rgb(5,6,27)"/><rect x="230" y="10" width="10" height="10" fill="rgb(5,6,27)"/><rect x="240" y="10" width="10" height="10" fill="rgb(5,6,27)"/><rect x="250" y="10" width="10" height="10" fill="rgb(5,6,27)"/><rect x="260" y="10" width="10" height="10" fill="rgb(5,6,27)"/><rect x="270" y="10" width="10" height="10" fill="rgb(5,6,27)"/><rect x="280" y="10" width="10" height="10" fill="rgb(5,6,27)"/><rect x="290" y="10" width="10" height="10" fill="rgb(5,6,27)"/><rect x="300" y="10" width="10" height="10" fill="#f0d060"/><rect x="310" y="10" width="10" height="10" fill="rgb(5,6,27)"/><rect x="320" y="10" width="10" height="10" fill="rgb(5,6,27)"/><rect x="330" y="10" width="10" height="10" fill="rgb(5,6,27)"/><rect x="340" y="10" width="10" height="10" fill="rgb(5,6,27)"/><rect x="350" y="10" width="10" height="10" fill="rgb(5,6,27)"/><rect x="360" y="10" width="10" height="10" fill="rgb(5,6,27)"/><rect x="370" y="10" width="10" height="10" fill="rgb(5,6,27)"/><rect x="380" y="10" width="10" height="10" fill="rgb(5,6,27)"/><rect x="390" y="10" width="10" height="10" fill="rgb(5,6,27)"/><rect x="400" y="10" width="10" height="10" fill="#fff0a0"/><rect x="410" y="10" width="10" height="10" fill="#f0d060"/><rect x="420" y="10" width="10" height="10" fill="rgb(5,6,27)"/><rect x="430" y="10" width="10" height="10" fill="rgb(5,6,27)"/><rect x="440" y="10" width="10" height="10" fill="rgb(5,6,27)"/><rect x="450" y="10" width="10" height="10" fill="#f0d060"/><rect x="460" y="10" width="10" height="10" fill="rgb(5,6,27)"/><rect x="470" y="10" width="10" height="10" fill="rgb(5,6,27)"/><rect x="0" y="20" width="10" height="10" fill="rgb(6,7,32)"/><rect x="10" y="20" width="10" height="10" fill="rgb(6,7,32)"/><rect x="20" y="20" width="10" height="10" fill="rgb(6,7,32)"/><rect x="30" y="20" width="10" height="10" fill="rgb(6,7,32)"/><rect x="40" y="20" width="10" height="10" fill="rgb(6,7,32)"/><rect x="50" y="20" width="10" height="10" fill="rgb(6,7,32)"/><rect x="60" y="20" width="10" height="10" fill="rgb(6,7,32)"/><rect x="70" y="20" width="10" height="10" fill="#404060"/><rect x="80" y="20" width="10" height="10" fill="rgb(6,7,32)"/><rect x="90" y="20" width="10" height="10" fill="rgb(6,7,32)"/><rect x="100" y="20" width="10" height="10" fill="rgb(6,7,32)"/><rect x="110" y="20" width="10" height="10" fill="rgb(6,7,32)"/><rect x="120" y="20" width="10" height="10" fill="rgb(6,7,32)"/><rect x="130" y="20" width="10" height="10" fill="rgb(6,7,32)"/><rect x="140" y="20" width="10" height="10" fill="rgb(6,7,32)"/><rect x="150" y="20" width="10" height="10" fill="rgb(6,7,32)"/><rect x="160" y="20" width="10" height="10" fill="rgb(6,7,32)"/><rect x="170" y="20" width="10" height="10" fill="rgb(6,7,32)"/><rect x="180" y="20" width="10" height="10" fill="rgb(6,7,32)"/><rect x="190" y="20" width="10" height="10" fill="rgb(6,7,32)"/><rect x="200" y="20" width="10" height="10" fill="#404060"/><rect x="210" y="20" width="10" height="10" fill="rgb(6,7,32)"/><rect x="220" y="20" width="10" height="10" fill="rgb(6,7,32)"/><rect x="230" y="20" width="10" height="10" fill="rgb(6,7,32)"/><rect x="240" y="20" width="10" height="10" fill="rgb(6,7,32)"/><rect x="250" y="20" width="10" height="10" fill="rgb(6,7,32)"/><rect x="260" y="20" width="10" height="10" fill="rgb(6,7,32)"/><rect x="270" y="20" width="10" height="10" fill="rgb(6,7,32)"/><rect x="280" y="20" width="10" height="10" fill="rgb(6,7,32)"/><rect x="290" y="20" width="10" height="10" fill="rgb(6,7,32)"/><rect x="300" y="20" width="10" height="10" fill="rgb(6,7,32)"/><rect x="310" y="20" width="10" height="10" fill="rgb(6,7,32)"/><rect x="320" y="20" width="10" height="10" fill="rgb(6,7,32)"/><rect x="330" y="20" width="10" height="10" fill="rgb(6,7,32)"/><rect x="340" y="20" width="10" height="10" fill="rgb(6,7,32)"/><rect x="350" y="20" width="10" height="10" fill="#f0d060"/><rect x="360" y="20" width="10" height="10" fill="rgb(6,7,32)"/><rect x="370" y="20" width="10" height="10" fill="rgb(6,7,32)"/><rect x="380" y="20" width="10" height="10" fill="rgb(6,7,32)"/><rect x="390" y="20" width="10" height="10" fill="rgb(6,7,32)"/><rect x="400" y="20" width="10" height="10" fill="rgb(6,7,32)"/><rect x="410" y="20" width="10" height="10" fill="#fff0a0"/><rect x="420" y="20" width="10" height="10" fill="#f0d060"/><rect x="430" y="20" width="10" height="10" fill="rgb(6,7,32)"/><rect x="440" y="20" width="10" height="10" fill="rgb(6,7,32)"/><rect x="450" y="20" width="10" height="10" fill="rgb(6,7,32)"/><rect x="460" y="20" width="10" height="10" fill="rgb(6,7,32)"/><rect x="470" y="20" width="10" height="10" fill="rgb(6,7,32)"/><rect x="0" y="30" width="10" height="10" fill="rgb(7,9,38)"/><rect x="10" y="30" width="10" height="10" fill="rgb(7,9,38)"/><rect x="20" y="30" width="10" height="10" fill="rgb(7,9,38)"/><rect x="30" y="30" width="10" height="10" fill="rgb(7,9,38)"/><rect x="40" y="30" width="10" height="10" fill="rgb(7,9,38)"/><rect x="50" y="30" width="10" height="10" fill="rgb(7,9,38)"/><rect x="60" y="30" width="10" height="10" fill="rgb(7,9,38)"/><rect x="70" y="30" width="10" height="10" fill="rgb(7,9,38)"/><rect x="80" y="30" width="10" height="10" fill="rgb(7,9,38)"/><rect x="90" y="30" width="10" height="10" fill="rgb(7,9,38)"/><rect x="100" y="30" width="10" height="10" fill="#f0d060"/><rect x="110" y="30" width="10" height="10" fill="rgb(7,9,38)"/><rect x="120" y="30" width="10" height="10" fill="rgb(7,9,38)"/><rect x="130" y="30" width="10" height="10" fill="rgb(7,9,38)"/><rect x="140" y="30" width="10" height="10" fill="rgb(7,9,38)"/><rect x="150" y="30" width="10" height="10" fill="rgb(7,9,38)"/><rect x="160" y="30" width="10" height="10" fill="rgb(7,9,38)"/><rect x="170" y="30" width="10" height="10" fill="rgb(7,9,38)"/><rect x="180" y="30" width="10" height="10" fill="rgb(7,9,38)"/><rect x="190" y="30" width="10" height="10" fill="rgb(7,9,38)"/><rect x="200" y="30" width="10" height="10" fill="rgb(7,9,38)"/><rect x="210" y="30" width="10" height="10" fill="rgb(7,9,38)"/><rect x="220" y="30" width="10" height="10" fill="rgb(7,9,38)"/><rect x="230" y="30" width="10" height="10" fill="rgb(7,9,38)"/><rect x="240" y="30" width="10" height="10" fill="rgb(7,9,38)"/><rect x="250" y="30" width="10" height="10" fill="rgb(7,9,38)"/><rect x="260" y="30" width="10" height="10" fill="rgb(7,9,38)"/><rect x="270" y="30" width="10" height="10" fill="rgb(7,9,38)"/><rect x="280" y="30" width="10" height="10" fill="#f0d060"/><rect x="290" y="30" width="10" height="10" fill="rgb(7,9,38)"/><rect x="300" y="30" width="10" height="10" fill="rgb(7,9,38)"/><rect x="310" y="30" width="10" height="10" fill="rgb(7,9,38)"/><rect x="320" y="30" width="10" height="10" fill="rgb(7,9,38)"/><rect x="330" y="30" width="10" height="10" fill="rgb(7,9,38)"/><rect x="340" y="30" width="10" height="10" fill="rgb(7,9,38)"/><rect x="350" y="30" width="10" height="10" fill="rgb(7,9,38)"/><rect x="360" y="30" width="10" height="10" fill="rgb(7,9,38)"/><rect x="370" y="30" width="10" height="10" fill="rgb(7,9,38)"/><rect x="380" y="30" width="10" height="10" fill="rgb(7,9,38)"/><rect x="390" y="30" width="10" height="10" fill="rgb(7,9,38)"/><rect x="400" y="30" width="10" height="10" fill="rgb(7,9,38)"/><rect x="410" y="30" width="10" height="10" fill="rgb(7,9,38)"/><rect x="420" y="30" width="10" height="10" fill="#f0d060"/><rect x="430" y="30" width="10" height="10" fill="#f0d060"/><rect x="440" y="30" width="10" height="10" fill="rgb(7,9,38)"/><rect x="450" y="30" width="10" height="10" fill="rgb(7,9,38)"/><rect x="460" y="30" width="10" height="10" fill="rgb(7,9,38)"/><rect x="470" y="30" width="10" height="10" fill="rgb(7,9,38)"/><rect x="0" y="40" width="10" height="10" fill="rgb(8,10,43)"/><rect x="10" y="40" width="10" height="10" fill="rgb(8,10,43)"/><rect x="20" y="40" width="10" height="10" fill="rgb(8,10,43)"/><rect x="30" y="40" width="10" height="10" fill="rgb(8,10,43)"/><rect x="40" y="40" width="10" height="10" fill="rgb(8,10,43)"/><rect x="50" y="40" width="10" height="10" fill="#404060"/><rect x="60" y="40" width="10" height="10" fill="rgb(8,10,43)"/><rect x="70" y="40" width="10" height="10" fill="rgb(8,10,43)"/><rect x="80" y="40" width="10" height="10" fill="rgb(8,10,43)"/><rect x="90" y="40" width="10" height="10" fill="rgb(8,10,43)"/><rect x="100" y="40" width="10" height="10" fill="rgb(8,10,43)"/><rect x="110" y="40" width="10" height="10" fill="rgb(8,10,43)"/><rect x="120" y="40" width="10" height="10" fill="rgb(8,10,43)"/><rect x="130" y="40" width="10" height="10" fill="rgb(8,10,43)"/><rect x="140" y="40" width="10" height="10" fill="rgb(8,10,43)"/><rect x="150" y="40" width="10" height="10" fill="rgb(8,10,43)"/><rect x="160" y="40" width="10" height="10" fill="rgb(8,10,43)"/><rect x="170" y="40" width="10" height="10" fill="rgb(8,10,43)"/><rect x="180" y="40" width="10" height="10" fill="rgb(8,10,43)"/><rect x="190" y="40" width="10" height="10" fill="rgb(8,10,43)"/><rect x="200" y="40" width="10" height="10" fill="rgb(8,10,43)"/><rect x="210" y="40" width="10" height="10" fill="rgb(8,10,43)"/><rect x="220" y="40" width="10" height="10" fill="rgb(8,10,43)"/><rect x="230" y="40" width="10" height="10" fill="rgb(8,10,43)"/><rect x="240" y="40" width="10" height="10" fill="rgb(8,10,43)"/><rect x="250" y="40" width="10" height="10" fill="rgb(8,10,43)"/><rect x="260" y="40" width="10" height="10" fill="rgb(8,10,43)"/><rect x="270" y="40" width="10" height="10" fill="rgb(8,10,43)"/><rect x="280" y="40" width="10" height="10" fill="rgb(8,10,43)"/><rect x="290" y="40" width="10" height="10" fill="rgb(8,10,43)"/><rect x="300" y="40" width="10" height="10" fill="rgb(8,10,43)"/><rect x="310" y="40" width="10" height="10" fill="rgb(8,10,43)"/><rect x="320" y="40" width="10" height="10" fill="rgb(8,10,43)"/><rect x="330" y="40" width="10" height="10" fill="#404060"/><rect x="340" y="40" width="10" height="10" fill="rgb(8,10,43)"/><rect x="350" y="40" width="10" height="10" fill="rgb(8,10,43)"/><rect x="360" y="40" width="10" height="10" fill="rgb(8,10,43)"/><rect x="370" y="40" width="10" height="10" fill="rgb(8,10,43)"/><rect x="380" y="40" width="10" height="10" fill="rgb(8,10,43)"/><rect x="390" y="40" width="10" height="10" fill="rgb(8,10,43)"/><rect x="400" y="40" width="10" height="10" fill="rgb(8,10,43)"/><rect x="410" y="40" width="10" height="10" fill="rgb(8,10,43)"/><rect x="420" y="40" width="10" height="10" fill="#f0d060"/><rect x="430" y="40" width="10" height="10" fill="#f0d060"/><rect x="440" y="40" width="10" height="10" fill="rgb(8,10,43)"/><rect x="450" y="40" width="10" height="10" fill="rgb(8,10,43)"/><rect x="460" y="40" width="10" height="10" fill="rgb(8,10,43)"/><rect x="470" y="40" width="10" height="10" fill="rgb(8,10,43)"/><rect x="0" y="50" width="10" height="10" fill="rgb(10,12,48)"/><rect x="10" y="50" width="10" height="10" fill="rgb(10,12,48)"/><rect x="20" y="50" width="10" height="10" fill="rgb(10,12,48)"/><rect x="30" y="50" width="10" height="10" fill="rgb(10,12,48)"/><rect x="40" y="50" width="10" height="10" fill="rgb(10,12,48)"/><rect x="50" y="50" width="10" height="10" fill="rgb(10,12,48)"/><rect x="60" y="50" width="10" height="10" fill="rgb(10,12,48)"/><rect x="70" y="50" width="10" height="10" fill="rgb(10,12,48)"/><rect x="80" y="50" width="10" height="10" fill="rgb(10,12,48)"/><rect x="90" y="50" width="10" height="10" fill="rgb(10,12,48)"/><rect x="100" y="50" width="10" height="10" fill="rgb(10,12,48)"/><rect x="110" y="50" width="10" height="10" fill="rgb(10,12,48)"/><rect x="120" y="50" width="10" height="10" fill="rgb(10,12,48)"/><rect x="130" y="50" width="10" height="10" fill="rgb(10,12,48)"/><rect x="140" y="50" width="10" height="10" fill="rgb(10,12,48)"/><rect x="150" y="50" width="10" height="10" fill="rgb(10,12,48)"/><rect x="160" y="50" width="10" height="10" fill="rgb(10,12,48)"/><rect x="170" y="50" width="10" height="10" fill="rgb(10,12,48)"/><rect x="180" y="50" width="10" height="10" fill="#f0d060"/><rect x="190" y="50" width="10" height="10" fill="rgb(10,12,48)"/><rect x="200" y="50" width="10" height="10" fill="rgb(10,12,48)"/><rect x="210" y="50" width="10" height="10" fill="rgb(10,12,48)"/><rect x="220" y="50" width="10" height="10" fill="rgb(10,12,48)"/><rect x="230" y="50" width="10" height="10" fill="rgb(10,12,48)"/><rect x="240" y="50" width="10" height="10" fill="rgb(10,12,48)"/><rect x="250" y="50" width="10" height="10" fill="#f0d060"/><rect x="260" y="50" width="10" height="10" fill="rgb(10,12,48)"/><rect x="270" y="50" width="10" height="10" fill="rgb(10,12,48)"/><rect x="280" y="50" width="10" height="10" fill="rgb(10,12,48)"/><rect x="290" y="50" width="10" height="10" fill="rgb(10,12,48)"/><rect x="300" y="50" width="10" height="10" fill="rgb(10,12,48)"/><rect x="310" y="50" width="10" height="10" fill="rgb(10,12,48)"/><rect x="320" y="50" width="10" height="10" fill="rgb(10,12,48)"/><rect x="330" y="50" width="10" height="10" fill="rgb(10,12,48)"/><rect x="340" y="50" width="10" height="10" fill="rgb(10,12,48)"/><rect x="350" y="50" width="10" height="10" fill="rgb(10,12,48)"/><rect x="360" y="50" width="10" height="10" fill="rgb(10,12,48)"/><rect x="370" y="50" width="10" height="10" fill="rgb(10,12,48)"/><rect x="380" y="50" width="10" height="10" fill="rgb(10,12,48)"/><rect x="390" y="50" width="10" height="10" fill="rgb(10,12,48)"/><rect x="400" y="50" width="10" height="10" fill="rgb(10,12,48)"/><rect x="410" y="50" width="10" height="10" fill="#f0d060"/><rect x="420" y="50" width="10" height="10" fill="#fff0a0"/><rect x="430" y="50" width="10" height="10" fill="rgb(10,12,48)"/><rect x="440" y="50" width="10" height="10" fill="#f0d060"/><rect x="450" y="50" width="10" height="10" fill="rgb(10,12,48)"/><rect x="460" y="50" width="10" height="10" fill="rgb(10,12,48)"/><rect x="470" y="50" width="10" height="10" fill="rgb(10,12,48)"/><rect x="0" y="60" width="10" height="10" fill="rgb(11,13,54)"/><rect x="10" y="60" width="10" height="10" fill="rgb(11,13,54)"/><rect x="20" y="60" width="10" height="10" fill="rgb(11,13,54)"/><rect x="30" y="60" width="10" height="10" fill="rgb(11,13,54)"/><rect x="40" y="60" width="10" height="10" fill="rgb(11,13,54)"/><rect x="50" y="60" width="10" height="10" fill="rgb(11,13,54)"/><rect x="60" y="60" width="10" height="10" fill="rgb(11,13,54)"/><rect x="70" y="60" width="10" height="10" fill="rgb(11,13,54)"/><rect x="80" y="60" width="10" height="10" fill="#f0d060"/><rect x="90" y="60" width="10" height="10" fill="rgb(11,13,54)"/><rect x="100" y="60" width="10" height="10" fill="rgb(11,13,54)"/><rect x="110" y="60" width="10" height="10" fill="rgb(11,13,54)"/><rect x="120" y="60" width="10" height="10" fill="rgb(11,13,54)"/><rect x="130" y="60" width="10" height="10" fill="rgb(11,13,54)"/><rect x="140" y="60" width="10" height="10" fill="rgb(11,13,54)"/><rect x="150" y="60" width="10" height="10" fill="rgb(11,13,54)"/><rect x="160" y="60" width="10" height="10" fill="rgb(11,13,54)"/><rect x="170" y="60" width="10" height="10" fill="rgb(11,13,54)"/><rect x="180" y="60" width="10" height="10" fill="rgb(11,13,54)"/><rect x="190" y="60" width="10" height="10" fill="rgb(11,13,54)"/><rect x="200" y="60" width="10" height="10" fill="rgb(11,13,54)"/><rect x="210" y="60" width="10" height="10" fill="rgb(11,13,54)"/><rect x="220" y="60" width="10" height="10" fill="rgb(11,13,54)"/><rect x="230" y="60" width="10" height="10" fill="rgb(11,13,54)"/><rect x="240" y="60" width="10" height="10" fill="rgb(11,13,54)"/><rect x="250" y="60" width="10" height="10" fill="rgb(11,13,54)"/><rect x="260" y="60" width="10" height="10" fill="rgb(11,13,54)"/><rect x="270" y="60" width="10" height="10" fill="rgb(11,13,54)"/><rect x="280" y="60" width="10" height="10" fill="rgb(11,13,54)"/><rect x="290" y="60" width="10" height="10" fill="rgb(11,13,54)"/><rect x="300" y="60" width="10" height="10" fill="rgb(11,13,54)"/><rect x="310" y="60" width="10" height="10" fill="#404060"/><rect x="320" y="60" width="10" height="10" fill="rgb(11,13,54)"/><rect x="330" y="60" width="10" height="10" fill="rgb(11,13,54)"/><rect x="340" y="60" width="10" height="10" fill="rgb(11,13,54)"/><rect x="350" y="60" width="10" height="10" fill="rgb(11,13,54)"/><rect x="360" y="60" width="10" height="10" fill="rgb(11,13,54)"/><rect x="370" y="60" width="10" height="10" fill="rgb(11,13,54)"/><rect x="380" y="60" width="10" height="10" fill="rgb(11,13,54)"/><rect x="390" y="60" width="10" height="10" fill="rgb(11,13,54)"/><rect x="400" y="60" width="10" height="10" fill="#f0d060"/><rect x="410" y="60" width="10" height="10" fill="#fff0a0"/><rect x="420" y="60" width="10" height="10" fill="rgb(11,13,54)"/><rect x="430" y="60" width="10" height="10" fill="rgb(11,13,54)"/><rect x="440" y="60" width="10" height="10" fill="rgb(11,13,54)"/><rect x="450" y="60" width="10" height="10" fill="rgb(11,13,54)"/><rect x="460" y="60" width="10" height="10" fill="rgb(11,13,54)"/><rect x="470" y="60" width="10" height="10" fill="#404060"/><rect x="0" y="70" width="10" height="10" fill="rgb(12,15,59)"/><rect x="10" y="70" width="10" height="10" fill="rgb(12,15,59)"/><rect x="20" y="70" width="10" height="10" fill="#404060"/><rect x="30" y="70" width="10" height="10" fill="rgb(12,15,59)"/><rect x="40" y="70" width="10" height="10" fill="rgb(12,15,59)"/><rect x="50" y="70" width="10" height="10" fill="rgb(12,15,59)"/><rect x="60" y="70" width="10" height="10" fill="rgb(12,15,59)"/><rect x="70" y="70" width="10" height="10" fill="rgb(12,15,59)"/><rect x="80" y="70" width="10" height="10" fill="rgb(12,15,59)"/><rect x="90" y="70" width="10" height="10" fill="rgb(12,15,59)"/><rect x="100" y="70" width="10" height="10" fill="rgb(12,15,59)"/><rect x="110" y="70" width="10" height="10" fill="rgb(12,15,59)"/><rect x="120" y="70" width="10" height="10" fill="rgb(12,15,59)"/><rect x="130" y="70" width="10" height="10" fill="rgb(12,15,59)"/><rect x="140" y="70" width="10" height="10" fill="rgb(12,15,59)"/><rect x="150" y="70" width="10" height="10" fill="rgb(12,15,59)"/><rect x="160" y="70" width="10" height="10" fill="rgb(12,15,59)"/><rect x="170" y="70" width="10" height="10" fill="rgb(12,15,59)"/><rect x="180" y="70" width="10" height="10" fill="rgb(12,15,59)"/><rect x="190" y="70" width="10" height="10" fill="rgb(12,15,59)"/><rect x="200" y="70" width="10" height="10" fill="rgb(12,15,59)"/><rect x="210" y="70" width="10" height="10" fill="rgb(12,15,59)"/><rect x="220" y="70" width="10" height="10" fill="rgb(12,15,59)"/><rect x="230" y="70" width="10" height="10" fill="rgb(12,15,59)"/><rect x="240" y="70" width="10" height="10" fill="rgb(12,15,59)"/><rect x="250" y="70" width="10" height="10" fill="rgb(12,15,59)"/><rect x="260" y="70" width="10" height="10" fill="#404060"/><rect x="270" y="70" width="10" height="10" fill="rgb(12,15,59)"/><rect x="280" y="70" width="10" height="10" fill="rgb(12,15,59)"/><rect x="290" y="70" width="10" height="10" fill="rgb(12,15,59)"/><rect x="300" y="70" width="10" height="10" fill="rgb(12,15,59)"/><rect x="310" y="70" width="10" height="10" fill="rgb(12,15,59)"/><rect x="320" y="70" width="10" height="10" fill="rgb(12,15,59)"/><rect x="330" y="70" width="10" height="10" fill="rgb(12,15,59)"/><rect x="340" y="70" width="10" height="10" fill="rgb(12,15,59)"/><rect x="350" y="70" width="10" height="10" fill="rgb(12,15,59)"/><rect x="360" y="70" width="10" height="10" fill="rgb(12,15,59)"/><rect x="370" y="70" width="10" height="10" fill="rgb(12,15,59)"/><rect x="380" y="70" width="10" height="10" fill="rgb(12,15,59)"/><rect x="390" y="70" width="10" height="10" fill="rgb(12,15,59)"/><rect x="400" y="70" width="10" height="10" fill="rgb(12,15,59)"/><rect x="410" y="70" width="10" height="10" fill="rgb(12,15,59)"/><rect x="420" y="70" width="10" height="10" fill="rgb(12,15,59)"/><rect x="430" y="70" width="10" height="10" fill="rgb(12,15,59)"/><rect x="440" y="70" width="10" height="10" fill="rgb(12,15,59)"/><rect x="450" y="70" width="10" height="10" fill="rgb(12,15,59)"/><rect x="460" y="70" width="10" height="10" fill="rgb(12,15,59)"/><rect x="470" y="70" width="10" height="10" fill="rgb(12,15,59)"/><rect x="0" y="80" width="10" height="10" fill="rgb(13,16,64)"/><rect x="10" y="80" width="10" height="10" fill="rgb(13,16,64)"/><rect x="20" y="80" width="10" height="10" fill="rgb(13,16,64)"/><rect x="30" y="80" width="10" height="10" fill="rgb(13,16,64)"/><rect x="40" y="80" width="10" height="10" fill="rgb(13,16,64)"/><rect x="50" y="80" width="10" height="10" fill="rgb(13,16,64)"/><rect x="60" y="80" width="10" height="10" fill="rgb(13,16,64)"/><rect x="70" y="80" width="10" height="10" fill="rgb(13,16,64)"/><rect x="80" y="80" width="10" height="10" fill="rgb(13,16,64)"/><rect x="90" y="80" width="10" height="10" fill="rgb(13,16,64)"/><rect x="100" y="80" width="10" height="10" fill="rgb(13,16,64)"/><rect x="110" y="80" width="10" height="10" fill="rgb(13,16,64)"/><rect x="120" y="80" width="10" height="10" fill="rgb(13,16,64)"/><rect x="130" y="80" width="10" height="10" fill="#f0d060"/><rect x="140" y="80" width="10" height="10" fill="rgb(13,16,64)"/><rect x="150" y="80" width="10" height="10" fill="rgb(13,16,64)"/><rect x="160" y="80" width="10" height="10" fill="rgb(13,16,64)"/><rect x="170" y="80" width="10" height="10" fill="rgb(13,16,64)"/><rect x="180" y="80" width="10" height="10" fill="rgb(13,16,64)"/><rect x="190" y="80" width="10" height="10" fill="rgb(13,16,64)"/><rect x="200" y="80" width="10" height="10" fill="rgb(13,16,64)"/><rect x="210" y="80" width="10" height="10" fill="rgb(13,16,64)"/><rect x="220" y="80" width="10" height="10" fill="rgb(13,16,64)"/><rect x="230" y="80" width="10" height="10" fill="rgb(13,16,64)"/><rect x="240" y="80" width="10" height="10" fill="rgb(13,16,64)"/><rect x="250" y="80" width="10" height="10" fill="rgb(13,16,64)"/><rect x="260" y="80" width="10" height="10" fill="rgb(13,16,64)"/><rect x="270" y="80" width="10" height="10" fill="rgb(13,16,64)"/><rect x="280" y="80" width="10" height="10" fill="rgb(13,16,64)"/><rect x="290" y="80" width="10" height="10" fill="rgb(13,16,64)"/><rect x="300" y="80" width="10" height="10" fill="rgb(13,16,64)"/><rect x="310" y="80" width="10" height="10" fill="rgb(13,16,64)"/><rect x="320" y="80" width="10" height="10" fill="rgb(13,16,64)"/><rect x="330" y="80" width="10" height="10" fill="rgb(13,16,64)"/><rect x="340" y="80" width="10" height="10" fill="rgb(13,16,64)"/><rect x="350" y="80" width="10" height="10" fill="rgb(13,16,64)"/><rect x="360" y="80" width="10" height="10" fill="rgb(13,16,64)"/><rect x="370" y="80" width="10" height="10" fill="rgb(13,16,64)"/><rect x="380" y="80" width="10" height="10" fill="#404060"/><rect x="390" y="80" width="10" height="10" fill="rgb(13,16,64)"/><rect x="400" y="80" width="10" height="10" fill="rgb(13,16,64)"/><rect x="410" y="80" width="10" height="10" fill="rgb(13,16,64)"/><rect x="420" y="80" width="10" height="10" fill="rgb(13,16,64)"/><rect x="430" y="80" width="10" height="10" fill="rgb(13,16,64)"/><rect x="440" y="80" width="10" height="10" fill="rgb(13,16,64)"/><rect x="450" y="80" width="10" height="10" fill="rgb(13,16,64)"/><rect x="460" y="80" width="10" height="10" fill="rgb(13,16,64)"/><rect x="470" y="80" width="10" height="10" fill="rgb(13,16,64)"/><rect x="0" y="90" width="10" height="10" fill="rgb(14,18,70)"/><rect x="10" y="90" width="10" height="10" fill="rgb(14,18,70)"/><rect x="20" y="90" width="10" height="10" fill="rgb(14,18,70)"/><rect x="30" y="90" width="10" height="10" fill="rgb(14,18,70)"/><rect x="40" y="90" width="10" height="10" fill="rgb(14,18,70)"/><rect x="50" y="90" width="10" height="10" fill="rgb(14,18,70)"/><rect x="60" y="90" width="10" height="10" fill="rgb(14,18,70)"/><rect x="70" y="90" width="10" height="10" fill="rgb(14,18,70)"/><rect x="80" y="90" width="10" height="10" fill="rgb(14,18,70)"/><rect x="90" y="90" width="10" height="10" fill="rgb(14,18,70)"/><rect x="100" y="90" width="10" height="10" fill="rgb(14,18,70)"/><rect x="110" y="90" width="10" height="10" fill="rgb(14,18,70)"/><rect x="120" y="90" width="10" height="10" fill="rgb(14,18,70)"/><rect x="130" y="90" width="10" height="10" fill="rgb(14,18,70)"/><rect x="140" y="90" width="10" height="10" fill="rgb(14,18,70)"/><rect x="150" y="90" width="10" height="10" fill="rgb(14,18,70)"/><rect x="160" y="90" width="10" height="10" fill="#404060"/><rect x="170" y="90" width="10" height="10" fill="rgb(14,18,70)"/><rect x="180" y="90" width="10" height="10" fill="rgb(14,18,70)"/><rect x="190" y="90" width="10" height="10" fill="rgb(14,18,70)"/><rect x="200" y="90" width="10" height="10" fill="rgb(14,18,70)"/><rect x="210" y="90" width="10" height="10" fill="rgb(14,18,70)"/><rect x="220" y="90" width="10" height="10" fill="rgb(14,18,70)"/><rect x="230" y="90" width="10" height="10" fill="rgb(14,18,70)"/><rect x="240" y="90" width="10" height="10" fill="rgb(14,18,70)"/><rect x="250" y="90" width="10" height="10" fill="rgb(14,18,70)"/><rect x="260" y="90" width="10" height="10" fill="rgb(14,18,70)"/><rect x="270" y="90" width="10" height="10" fill="rgb(14,18,70)"/><rect x="280" y="90" width="10" height="10" fill="rgb(14,18,70)"/><rect x="290" y="90" width="10" height="10" fill="rgb(14,18,70)"/><rect x="300" y="90" width="10" height="10" fill="rgb(14,18,70)"/><rect x="310" y="90" width="10" height="10" fill="rgb(14,18,70)"/><rect x="320" y="90" width="10" height="10" fill="rgb(14,18,70)"/><rect x="330" y="90" width="10" height="10" fill="rgb(14,18,70)"/><rect x="340" y="90" width="10" height="10" fill="rgb(14,18,70)"/><rect x="350" y="90" width="10" height="10" fill="rgb(14,18,70)"/><rect x="360" y="90" width="10" height="10" fill="rgb(14,18,70)"/><rect x="370" y="90" width="10" height="10" fill="#080a18"/><rect x="380" y="90" width="10" height="10" fill="#080a18"/><rect x="390" y="90" width="10" height="10" fill="#080a18"/><rect x="400" y="90" width="10" height="10" fill="#080a18"/><rect x="410" y="90" width="10" height="10" fill="rgb(14,18,70)"/><rect x="420" y="90" width="10" height="10" fill="#404060"/><rect x="430" y="90" width="10" height="10" fill="rgb(14,18,70)"/><rect x="440" y="90" width="10" height="10" fill="rgb(14,18,70)"/><rect x="450" y="90" width="10" height="10" fill="rgb(14,18,70)"/><rect x="460" y="90" width="10" height="10" fill="rgb(14,18,70)"/><rect x="470" y="90" width="10" height="10" fill="rgb(14,18,70)"/><rect x="0" y="100" width="10" height="10" fill="rgb(16,19,75)"/><rect x="10" y="100" width="10" height="10" fill="rgb(16,19,75)"/><rect x="20" y="100" width="10" height="10" fill="rgb(16,19,75)"/><rect x="30" y="100" width="10" height="10" fill="rgb(16,19,75)"/><rect x="40" y="100" width="10" height="10" fill="rgb(16,19,75)"/><rect x="50" y="100" width="10" height="10" fill="#080a18"/><rect x="60" y="100" width="10" height="10" fill="#080a18"/><rect x="70" y="100" width="10" height="10" fill="#080a18"/><rect x="80" y="100" width="10" height="10" fill="rgb(16,19,75)"/><rect x="90" y="100" width="10" height="10" fill="rgb(16,19,75)"/><rect x="100" y="100" width="10" height="10" fill="rgb(16,19,75)"/><rect x="110" y="100" width="10" height="10" fill="rgb(16,19,75)"/><rect x="120" y="100" width="10" height="10" fill="rgb(16,19,75)"/><rect x="130" y="100" width="10" height="10" fill="rgb(16,19,75)"/><rect x="140" y="100" width="10" height="10" fill="rgb(16,19,75)"/><rect x="150" y="100" width="10" height="10" fill="rgb(16,19,75)"/><rect x="160" y="100" width="10" height="10" fill="rgb(16,19,75)"/><rect x="170" y="100" width="10" height="10" fill="rgb(16,19,75)"/><rect x="180" y="100" width="10" height="10" fill="rgb(16,19,75)"/><rect x="190" y="100" width="10" height="10" fill="rgb(16,19,75)"/><rect x="200" y="100" width="10" height="10" fill="rgb(16,19,75)"/><rect x="210" y="100" width="10" height="10" fill="rgb(16,19,75)"/><rect x="220" y="100" width="10" height="10" fill="rgb(16,19,75)"/><rect x="230" y="100" width="10" height="10" fill="rgb(16,19,75)"/><rect x="240" y="100" width="10" height="10" fill="rgb(16,19,75)"/><rect x="250" y="100" width="10" height="10" fill="rgb(16,19,75)"/><rect x="260" y="100" width="10" height="10" fill="rgb(16,19,75)"/><rect x="270" y="100" width="10" height="10" fill="rgb(16,19,75)"/><rect x="280" y="100" width="10" height="10" fill="rgb(16,19,75)"/><rect x="290" y="100" width="10" height="10" fill="rgb(16,19,75)"/><rect x="300" y="100" width="10" height="10" fill="rgb(16,19,75)"/><rect x="310" y="100" width="10" height="10" fill="rgb(16,19,75)"/><rect x="320" y="100" width="10" height="10" fill="rgb(16,19,75)"/><rect x="330" y="100" width="10" height="10" fill="rgb(16,19,75)"/><rect x="340" y="100" width="10" height="10" fill="rgb(16,19,75)"/><rect x="350" y="100" width="10" height="10" fill="rgb(16,19,75)"/><rect x="360" y="100" width="10" height="10" fill="rgb(16,19,75)"/><rect x="370" y="100" width="10" height="10" fill="#080a18"/><rect x="380" y="100" width="10" height="10" fill="#080a18"/><rect x="390" y="100" width="10" height="10" fill="#080a18"/><rect x="400" y="100" width="10" height="10" fill="#080a18"/><rect x="410" y="100" width="10" height="10" fill="rgb(16,19,75)"/><rect x="420" y="100" width="10" height="10" fill="rgb(16,19,75)"/><rect x="430" y="100" width="10" height="10" fill="rgb(16,19,75)"/><rect x="440" y="100" width="10" height="10" fill="rgb(16,19,75)"/><rect x="450" y="100" width="10" height="10" fill="rgb(16,19,75)"/><rect x="460" y="100" width="10" height="10" fill="rgb(16,19,75)"/><rect x="470" y="100" width="10" height="10" fill="rgb(16,19,75)"/><rect x="0" y="110" width="10" height="10" fill="rgb(17,21,80)"/><rect x="10" y="110" width="10" height="10" fill="rgb(17,21,80)"/><rect x="20" y="110" width="10" height="10" fill="rgb(17,21,80)"/><rect x="30" y="110" width="10" height="10" fill="rgb(17,21,80)"/><rect x="40" y="110" width="10" height="10" fill="rgb(17,21,80)"/><rect x="50" y="110" width="10" height="10" fill="#080a18"/><rect x="60" y="110" width="10" height="10" fill="#080a18"/><rect x="70" y="110" width="10" height="10" fill="#080a18"/><rect x="80" y="110" width="10" height="10" fill="rgb(17,21,80)"/><rect x="90" y="110" width="10" height="10" fill="rgb(17,21,80)"/><rect x="100" y="110" width="10" height="10" fill="rgb(17,21,80)"/><rect x="110" y="110" width="10" height="10" fill="rgb(17,21,80)"/><rect x="120" y="110" width="10" height="10" fill="rgb(17,21,80)"/><rect x="130" y="110" width="10" height="10" fill="rgb(17,21,80)"/><rect x="140" y="110" width="10" height="10" fill="rgb(17,21,80)"/><rect x="150" y="110" width="10" height="10" fill="rgb(17,21,80)"/><rect x="160" y="110" width="10" height="10" fill="rgb(17,21,80)"/><rect x="170" y="110" width="10" height="10" fill="rgb(17,21,80)"/><rect x="180" y="110" width="10" height="10" fill="rgb(17,21,80)"/><rect x="190" y="110" width="10" height="10" fill="rgb(17,21,80)"/><rect x="200" y="110" width="10" height="10" fill="rgb(17,21,80)"/><rect x="210" y="110" width="10" height="10" fill="rgb(17,21,80)"/><rect x="220" y="110" width="10" height="10" fill="rgb(17,21,80)"/><rect x="230" y="110" width="10" height="10" fill="rgb(17,21,80)"/><rect x="240" y="110" width="10" height="10" fill="rgb(17,21,80)"/><rect x="250" y="110" width="10" height="10" fill="rgb(17,21,80)"/><rect x="260" y="110" width="10" height="10" fill="rgb(17,21,80)"/><rect x="270" y="110" width="10" height="10" fill="rgb(17,21,80)"/><rect x="280" y="110" width="10" height="10" fill="rgb(17,21,80)"/><rect x="290" y="110" width="10" height="10" fill="rgb(17,21,80)"/><rect x="300" y="110" width="10" height="10" fill="rgb(17,21,80)"/><rect x="310" y="110" width="10" height="10" fill="rgb(17,21,80)"/><rect x="320" y="110" width="10" height="10" fill="rgb(17,21,80)"/><rect x="330" y="110" width="10" height="10" fill="#080a18"/><rect x="340" y="110" width="10" height="10" fill="#080a18"/><rect x="350" y="110" width="10" height="10" fill="#080a18"/><rect x="360" y="110" width="10" height="10" fill="rgb(17,21,80)"/><rect x="370" y="110" width="10" height="10" fill="#080a18"/><rect x="380" y="110" width="10" height="10" fill="#3a3520"/><rect x="390" y="110" width="10" height="10" fill="#080a18"/><rect x="400" y="110" width="10" height="10" fill="#080a18"/><rect x="410" y="110" width="10" height="10" fill="rgb(17,21,80)"/><rect x="420" y="110" width="10" height="10" fill="rgb(17,21,80)"/><rect x="430" y="110" width="10" height="10" fill="rgb(17,21,80)"/><rect x="440" y="110" width="10" height="10" fill="rgb(17,21,80)"/><rect x="450" y="110" width="10" height="10" fill="rgb(17,21,80)"/><rect x="460" y="110" width="10" height="10" fill="#080a18"/><rect x="470" y="110" width="10" height="10" fill="#080a18"/><rect x="0" y="120" width="10" height="10" fill="#080a18"/><rect x="10" y="120" width="10" height="10" fill="#080a18"/><rect x="20" y="120" width="10" height="10" fill="#080a18"/><rect x="30" y="120" width="10" height="10" fill="#080a18"/><rect x="40" y="120" width="10" height="10" fill="rgb(18,22,86)"/><rect x="50" y="120" width="10" height="10" fill="#080a18"/><rect x="60" y="120" width="10" height="10" fill="#3a3520"/><rect x="70" y="120" width="10" height="10" fill="#080a18"/><rect x="80" y="120" width="10" height="10" fill="rgb(18,22,86)"/><rect x="90" y="120" width="10" height="10" fill="rgb(18,22,86)"/><rect x="100" y="120" width="10" height="10" fill="rgb(18,22,86)"/><rect x="110" y="120" width="10" height="10" fill="rgb(18,22,86)"/><rect x="120" y="120" width="10" height="10" fill="rgb(18,22,86)"/><rect x="130" y="120" width="10" height="10" fill="rgb(18,22,86)"/><rect x="140" y="120" width="10" height="10" fill="rgb(18,22,86)"/><rect x="150" y="120" width="10" height="10" fill="rgb(18,22,86)"/><rect x="160" y="120" width="10" height="10" fill="rgb(18,22,86)"/><rect x="170" y="120" width="10" height="10" fill="rgb(18,22,86)"/><rect x="180" y="120" width="10" height="10" fill="rgb(18,22,86)"/><rect x="190" y="120" width="10" height="10" fill="rgb(18,22,86)"/><rect x="200" y="120" width="10" height="10" fill="rgb(18,22,86)"/><rect x="210" y="120" width="10" height="10" fill="rgb(18,22,86)"/><rect x="220" y="120" width="10" height="10" fill="rgb(18,22,86)"/><rect x="230" y="120" width="10" height="10" fill="rgb(18,22,86)"/><rect x="240" y="120" width="10" height="10" fill="rgb(18,22,86)"/><rect x="250" y="120" width="10" height="10" fill="rgb(18,22,86)"/><rect x="260" y="120" width="10" height="10" fill="rgb(18,22,86)"/><rect x="270" y="120" width="10" height="10" fill="rgb(18,22,86)"/><rect x="280" y="120" width="10" height="10" fill="rgb(18,22,86)"/><rect x="290" y="120" width="10" height="10" fill="rgb(18,22,86)"/><rect x="300" y="120" width="10" height="10" fill="rgb(18,22,86)"/><rect x="310" y="120" width="10" height="10" fill="rgb(18,22,86)"/><rect x="320" y="120" width="10" height="10" fill="rgb(18,22,86)"/><rect x="330" y="120" width="10" height="10" fill="#080a18"/><rect x="340" y="120" width="10" height="10" fill="#080a18"/><rect x="350" y="120" width="10" height="10" fill="#080a18"/><rect x="360" y="120" width="10" height="10" fill="rgb(18,22,86)"/><rect x="370" y="120" width="10" height="10" fill="#080a18"/><rect x="380" y="120" width="10" height="10" fill="#080a18"/><rect x="390" y="120" width="10" height="10" fill="#080a18"/><rect x="400" y="120" width="10" height="10" fill="#080a18"/><rect x="410" y="120" width="10" height="10" fill="rgb(18,22,86)"/><rect x="420" y="120" width="10" height="10" fill="#080a18"/><rect x="430" y="120" width="10" height="10" fill="#080a18"/><rect x="440" y="120" width="10" height="10" fill="#080a18"/><rect x="450" y="120" width="10" height="10" fill="rgb(18,22,86)"/><rect x="460" y="120" width="10" height="10" fill="#080a18"/><rect x="470" y="120" width="10" height="10" fill="#080a18"/><rect x="0" y="130" width="10" height="10" fill="#080a18"/><rect x="10" y="130" width="10" height="10" fill="#3a3520"/><rect x="20" y="130" width="10" height="10" fill="#080a18"/><rect x="30" y="130" width="10" height="10" fill="#080a18"/><rect x="40" y="130" width="10" height="10" fill="rgb(19,24,91)"/><rect x="50" y="130" width="10" height="10" fill="#080a18"/><rect x="60" y="130" width="10" height="10" fill="#080a18"/><rect x="70" y="130" width="10" height="10" fill="#080a18"/><rect x="80" y="130" width="10" height="10" fill="rgb(19,24,91)"/><rect x="90" y="130" width="10" height="10" fill="#080a18"/><rect x="100" y="130" width="10" height="10" fill="#080a18"/><rect x="110" y="130" width="10" height="10" fill="#080a18"/><rect x="120" y="130" width="10" height="10" fill="#080a18"/><rect x="130" y="130" width="10" height="10" fill="#080a18"/><rect x="140" y="130" width="10" height="10" fill="rgb(19,24,91)"/><rect x="150" y="130" width="10" height="10" fill="rgb(19,24,91)"/><rect x="160" y="130" width="10" height="10" fill="rgb(19,24,91)"/><rect x="170" y="130" width="10" height="10" fill="rgb(19,24,91)"/><rect x="180" y="130" width="10" height="10" fill="rgb(19,24,91)"/><rect x="190" y="130" width="10" height="10" fill="rgb(19,24,91)"/><rect x="200" y="130" width="10" height="10" fill="rgb(19,24,91)"/><rect x="210" y="130" width="10" height="10" fill="rgb(19,24,91)"/><rect x="220" y="130" width="10" height="10" fill="rgb(19,24,91)"/><rect x="230" y="130" width="10" height="10" fill="rgb(19,24,91)"/><rect x="240" y="130" width="10" height="10" fill="rgb(19,24,91)"/><rect x="250" y="130" width="10" height="10" fill="rgb(19,24,91)"/><rect x="260" y="130" width="10" height="10" fill="rgb(19,24,91)"/><rect x="270" y="130" width="10" height="10" fill="rgb(19,24,91)"/><rect x="280" y="130" width="10" height="10" fill="rgb(19,24,91)"/><rect x="290" y="130" width="10" height="10" fill="rgb(19,24,91)"/><rect x="300" y="130" width="10" height="10" fill="rgb(19,24,91)"/><rect x="310" y="130" width="10" height="10" fill="rgb(19,24,91)"/><rect x="320" y="130" width="10" height="10" fill="rgb(19,24,91)"/><rect x="330" y="130" width="10" height="10" fill="#080a18"/><rect x="340" y="130" width="10" height="10" fill="#3a3520"/><rect x="350" y="130" width="10" height="10" fill="#080a18"/><rect x="360" y="130" width="10" height="10" fill="rgb(19,24,91)"/><rect x="370" y="130" width="10" height="10" fill="#080a18"/><rect x="380" y="130" width="10" height="10" fill="#080a18"/><rect x="390" y="130" width="10" height="10" fill="#3a3520"/><rect x="400" y="130" width="10" height="10" fill="#080a18"/><rect x="410" y="130" width="10" height="10" fill="rgb(19,24,91)"/><rect x="420" y="130" width="10" height="10" fill="#080a18"/><rect x="430" y="130" width="10" height="10" fill="#080a18"/><rect x="440" y="130" width="10" height="10" fill="#080a18"/><rect x="450" y="130" width="10" height="10" fill="rgb(19,24,91)"/><rect x="460" y="130" width="10" height="10" fill="#080a18"/><rect x="470" y="130" width="10" height="10" fill="#3a3520"/><rect x="0" y="140" width="10" height="10" fill="#080a18"/><rect x="10" y="140" width="10" height="10" fill="#080a18"/><rect x="20" y="140" width="10" height="10" fill="#080a18"/><rect x="30" y="140" width="10" height="10" fill="#080a18"/><rect x="40" y="140" width="10" height="10" fill="rgb(20,25,96)"/><rect x="50" y="140" width="10" height="10" fill="#080a18"/><rect x="60" y="140" width="10" height="10" fill="#3a3520"/><rect x="70" y="140" width="10" height="10" fill="#080a18"/><rect x="80" y="140" width="10" height="10" fill="rgb(20,25,96)"/><rect x="90" y="140" width="10" height="10" fill="#080a18"/><rect x="100" y="140" width="10" height="10" fill="#080a18"/><rect x="110" y="140" width="10" height="10" fill="#080a18"/><rect x="120" y="140" width="10" height="10" fill="#080a18"/><rect x="130" y="140" width="10" height="10" fill="#080a18"/><rect x="140" y="140" width="10" height="10" fill="rgb(20,25,96)"/><rect x="150" y="140" width="10" height="10" fill="rgb(20,25,96)"/><rect x="160" y="140" width="10" height="10" fill="rgb(20,25,96)"/><rect x="170" y="140" width="10" height="10" fill="rgb(20,25,96)"/><rect x="180" y="140" width="10" height="10" fill="rgb(20,25,96)"/><rect x="190" y="140" width="10" height="10" fill="rgb(20,25,96)"/><rect x="200" y="140" width="10" height="10" fill="rgb(20,25,96)"/><rect x="210" y="140" width="10" height="10" fill="rgb(20,25,96)"/><rect x="220" y="140" width="10" height="10" fill="rgb(20,25,96)"/><rect x="230" y="140" width="10" height="10" fill="rgb(20,25,96)"/><rect x="240" y="140" width="10" height="10" fill="rgb(20,25,96)"/><rect x="250" y="140" width="10" height="10" fill="rgb(20,25,96)"/><rect x="260" y="140" width="10" height="10" fill="rgb(20,25,96)"/><rect x="270" y="140" width="10" height="10" fill="rgb(20,25,96)"/><rect x="280" y="140" width="10" height="10" fill="rgb(20,25,96)"/><rect x="290" y="140" width="10" height="10" fill="rgb(20,25,96)"/><rect x="300" y="140" width="10" height="10" fill="rgb(20,25,96)"/><rect x="310" y="140" width="10" height="10" fill="rgb(20,25,96)"/><rect x="320" y="140" width="10" height="10" fill="rgb(20,25,96)"/><rect x="330" y="140" width="10" height="10" fill="#080a18"/><rect x="340" y="140" width="10" height="10" fill="#080a18"/><rect x="350" y="140" width="10" height="10" fill="#080a18"/><rect x="360" y="140" width="10" height="10" fill="rgb(20,25,96)"/><rect x="370" y="140" width="10" height="10" fill="#080a18"/><rect x="380" y="140" width="10" height="10" fill="#080a18"/><rect x="390" y="140" width="10" height="10" fill="#080a18"/><rect x="400" y="140" width="10" height="10" fill="#080a18"/><rect x="410" y="140" width="10" height="10" fill="rgb(20,25,96)"/><rect x="420" y="140" width="10" height="10" fill="#080a18"/><rect x="430" y="140" width="10" height="10" fill="#3a3520"/><rect x="440" y="140" width="10" height="10" fill="#080a18"/><rect x="450" y="140" width="10" height="10" fill="rgb(20,25,96)"/><rect x="460" y="140" width="10" height="10" fill="#080a18"/><rect x="470" y="140" width="10" height="10" fill="#080a18"/><rect x="0" y="150" width="10" height="10" fill="#080a18"/><rect x="10" y="150" width="10" height="10" fill="#080a18"/><rect x="20" y="150" width="10" height="10" fill="#080a18"/><rect x="30" y="150" width="10" height="10" fill="#080a18"/><rect x="40" y="150" width="10" height="10" fill="#0c0e1c"/><rect x="50" y="150" width="10" height="10" fill="#080a18"/><rect x="60" y="150" width="10" height="10" fill="#080a18"/><rect x="70" y="150" width="10" height="10" fill="#080a18"/><rect x="80" y="150" width="10" height="10" fill="#0c0e1c"/><rect x="90" y="150" width="10" height="10" fill="#080a18"/><rect x="100" y="150" width="10" height="10" fill="#080a18"/><rect x="110" y="150" width="10" height="10" fill="#080a18"/><rect x="120" y="150" width="10" height="10" fill="#080a18"/><rect x="130" y="150" width="10" height="10" fill="#080a18"/><rect x="140" y="150" width="10" height="10" fill="#0c0e1c"/><rect x="150" y="150" width="10" height="10" fill="#0c0e1c"/><rect x="160" y="150" width="10" height="10" fill="#0c0e1c"/><rect x="170" y="150" width="10" height="10" fill="#0c0e1c"/><rect x="180" y="150" width="10" height="10" fill="#0c0e1c"/><rect x="190" y="150" width="10" height="10" fill="#0c0e1c"/><rect x="200" y="150" width="10" height="10" fill="#0c0e1c"/><rect x="210" y="150" width="10" height="10" fill="#0c0e1c"/><rect x="220" y="150" width="10" height="10" fill="#0c0e1c"/><rect x="230" y="150" width="10" height="10" fill="#0c0e1c"/><rect x="240" y="150" width="10" height="10" fill="#0c0e1c"/><rect x="250" y="150" width="10" height="10" fill="#0c0e1c"/><rect x="260" y="150" width="10" height="10" fill="#0c0e1c"/><rect x="270" y="150" width="10" height="10" fill="#0c0e1c"/><rect x="280" y="150" width="10" height="10" fill="#0c0e1c"/><rect x="290" y="150" width="10" height="10" fill="#0c0e1c"/><rect x="300" y="150" width="10" height="10" fill="#0c0e1c"/><rect x="310" y="150" width="10" height="10" fill="#0c0e1c"/><rect x="320" y="150" width="10" height="10" fill="#0c0e1c"/><rect x="330" y="150" width="10" height="10" fill="#080a18"/><rect x="340" y="150" width="10" height="10" fill="#080a18"/><rect x="350" y="150" width="10" height="10" fill="#080a18"/><rect x="360" y="150" width="10" height="10" fill="#0c0e1c"/><rect x="370" y="150" width="10" height="10" fill="#080a18"/><rect x="380" y="150" width="10" height="10" fill="#080a18"/><rect x="390" y="150" width="10" height="10" fill="#080a18"/><rect x="400" y="150" width="10" height="10" fill="#080a18"/><rect x="410" y="150" width="10" height="10" fill="#0c0e1c"/><rect x="420" y="150" width="10" height="10" fill="#080a18"/><rect x="430" y="150" width="10" height="10" fill="#080a18"/><rect x="440" y="150" width="10" height="10" fill="#080a18"/><rect x="450" y="150" width="10" height="10" fill="#0c0e1c"/><rect x="460" y="150" width="10" height="10" fill="#080a18"/><rect x="470" y="150" width="10" height="10" fill="#080a18"/></svg>