<svg xmlns="http://www.w3.org/2000/svg" viewBox="0 0 480 160" shape-rendering="crispEdges">
  <defs>
    <linearGradient id="sky" x1="0" y1="0" x2="0" y2="1">
      <stop offset="0.0%" stop-color="rgb(4,5,22)"/>
      <stop offset="6.7%" stop-color="rgb(4,5,22)"/>
      <stop offset="6.7%" stop-color="rgb(5,6,27)"/>
      <stop offset="13.3%" stop-color="rgb(5,6,27)"/>
      <stop offset="13.3%" stop-color="rgb(6,7,32)"/>
      <stop offset="20.0%" stop-color="rgb(6,7,32)"/>
      <stop offset="20.0%" stop-color="rgb(7,9,38)"/>
      <stop offset="26.7%" stop-color="rgb(7,9,38)"/>
      <stop offset="26.7%" stop-color="rgb(8,10,43)"/>
      <stop offset="33.3%" stop-color="rgb(8,10,43)"/>
      <stop offset="33.3%" stop-color="rgb(10,12,48)"/>
      <stop offset="40.0%" stop-color="rgb(10,12,48)"/>
      <stop offset="40.0%" stop-color="rgb(11,13,54)"/>
      <stop offset="46.7%" stop-color="rgb(11,13,54)"/>
      <stop offset="46.7%" stop-color="rgb(12,15,59)"/>
      <stop offset="53.3%" stop-color="rgb(12,15,59)"/>
      <stop offset="53.3%" stop-color="rgb(13,16,64)"/>
      <stop offset="60.0%" stop-color="rgb(13,16,64)"/>
      <stop offset="60.0%" stop-color="rgb(14,18,70)"/>
      <stop offset="66.7%" stop-color="rgb(14,18,70)"/>
      <stop offset="66.7%" stop-color="rgb(16,19,75)"/>
      <stop offset="73.3%" stop-color="rgb(16,19,75)"/>
      <stop offset="73.3%" stop-color="rgb(17,21,80)"/>
      <stop offset="80.0%" stop-color="rgb(17,21,80)"/>
      <stop offset="80.0%" stop-color="rgb(18,22,86)"/>
      <stop offset="86.7%" stop-color="rgb(18,22,86)"/>
      <stop offset="86.7%" stop-color="rgb(19,24,91)"/>
      <stop offset="93.3%" stop-color="rgb(19,24,91)"/>
      <stop offset="93.3%" stop-color="rgb(20,25,96)"/>
      <stop offset="100.0%" stop-color="rgb(20,25,96)"/>
    </linearGradient>
  </defs>
  <rect width="480" height="160" fill="url(#sky)"/>
  <!-- stars -->
  <rect x="220" y="0" height="10" fill="#f0d060"/>
  <rect x="30" y="10" height="10" fill="#f0d060"/>
  <rect x="150" y="10" height="10" fill="#f0d060"/>
  <rect x="300" y="10" height="10" fill="#f0d060"/>
  <rect x="400" y="10" height="10" fill="#fff0a0"/>
  <rect x="410" y="10" height="10" fill="#f0d060"/>
  <rect x="450" y="10" height="10" fill="#f0d060"/>
  <rect x="350" y="20" height="10" fill="#f0d060"/>
  <rect x="410" y="20" height="10" fill="#fff0a0"/>
  <rect x="420" y="20" height="10" fill="#f0d060"/>
  <rect x="100" y="30" height="10" fill="#f0d060"/>
  <rect x="280" y="30" height="10" fill="#f0d060"/>
  <rect x="420" y="30" width="20" height="10" fill="#f0d060"/>
  <rect x="420" y="40" width="20" height="10" fill="#f0d060"/>
  <rect x="180" y="50" height="10" fill="#f0d060"/>
  <rect x="250" y="50" height="10" fill="#f0d060"/>
  <rect x="410" y="50" height="10" fill="#f0d060"/>
  <rect x="420" y="50" height="10" fill="#fff0a0"/>
  <rect x="440" y="50" height="10" fill="#f0d060"/>
  <rect x="80" y="60" height="10" fill="#f0d060"/>
  <rect x="400" y="60" height="10" fill="#f0d060"/>
  <rect x="410" y="60" height="10" fill="#fff0a0"/>
  <rect x="130" y="80" height="10" fill="#f0d060"/>
  <!-- dim stars -->
  <rect x="120" y="0" height="10" fill="#404060"/>
  <rect x="70" y="20" height="10" fill="#404060"/>
  <rect x="200" y="20" height="10" fill="#404060"/>
  <rect x="50" y="40" height="10" fill="#404060"/>
  <rect x="330" y="40" height="10" fill="#404060"/>
  <rect x="310" y="60" height="10" fill="#404060"/>
  <rect x="470" y="60" height="10" fill="#404060"/>
  <rect x="20" y="70" height="10" fill="#404060"/>
  <rect x="260" y="70" height="10" fill="#404060"/>
  <rect x="380" y="80" height="10" fill="#404060"/>
  <rect x="160" y="90" height="10" fill="#404060"/>
  <rect x="420" y="90" height="10" fill="#404060"/>
  <!-- buildings -->
  <rect x="370" y="90" width="40" height="10" fill="#080a18"/>
  <rect x="50" y="100" width="30" height="10" fill="#080a18"/>
  <rect x="370" y="100" width="40" height="10" fill="#080a18"/>
  <rect x="50" y="110" width="30" height="10" fill="#080a18"/>
  <rect x="330" y="110" width="30" height="10" fill="#080a18"/>
  <rect x="370" y="110" width="40" height="10" fill="#080a18"/>
  <rect x="460" y="110" width="20" height="10" fill="#080a18"/>
  <rect x="0" y="120" width="40" height="10" fill="#080a18"/>
  <rect x="50" y="120" width="30" height="10" fill="#080a18"/>
  <rect x="330" y="120" width="30" height="10" fill="#080a18"/>
  <rect x="370" y="120" width="40" height="10" fill="#080a18"/>
  <rect x="420" y="120" width="30" height="10" fill="#080a18"/>
  <rect x="460" y="120" width="20" height="10" fill="#080a18"/>
  <rect x="0" y="130" width="40" height="10" fill="#080a18"/>
  <rect x="50" y="130" width="30" height="10" fill="#080a18"/>
  <rect x="90" y="130" width="50" height="10" fill="#080a18"/>
  <rect x="330" y="130" width="30" height="10" fill="#080a18"/>
  <rect x="370" y="130" width="40" height="10" fill="#080a18"/>
  <rect x="420" y="130" width="30" height="10" fill="#080a18"/>
  <rect x="460" y="130" width="20" height="10" fill="#080a18"/>
  <rect x="0" y="140" width="40" height="10" fill="#080a18"/>
  <rect x="50" y="140" width="30" height="10" fill="#080a18"/>
  <rect x="90" y="140" width="50" height="10" fill="#080a18"/>
  <rect x="330" y="140" width="30" height="10" fill="#080a18"/>
  <rect x="370" y="140" width="40" height="10" fill="#080a18"/>
  <rect x="420" y="140" width="30" height="10" fill="#080a18"/>
  <rect x="460" y="140" width="20" height="10" fill="#080a18"/>
  <!-- windows -->
  <rect x="380" y="110" height="10" fill="#3a3520"/>
  <rect x="60" y="120" height="10" fill="#3a3520"/>
  <rect x="10" y="130" height="10" fill="#3a3520"/>
  <rect x="340" y="130" height="10" fill="#3a3520"/>
  <rect x="390" y="130" height="10" fill="#3a3520"/>
  <rect x="470" y="130" height="10" fill="#3a3520"/>
  <rect x="60" y="140" height="10" fill="#3a3520"/>
  <rect x="430" y="140" height="10" fill="#3a3520"/>
  <!-- ground details -->
  <rect x="40" y="150" height="10" fill="#0c0e1c"/>
  <rect x="80" y="150" height="10" fill="#0c0e1c"/>
  <rect x="140" y="150" width="190" height="10" fill="#0c0e1c"/>
  <rect x="360" y="150" height="10" fill="#0c0e1c"/>
  <rect x="410" y="150" height="10" fill="#0c0e1c"/>
  <rect x="450" y="150" height="10" fill="#0c0e1c"/>
</svg>
